<?xml version="1.0" encoding="UTF-8"?>
<svg xmlns="http://www.w3.org/2000/svg" xmlns:xlink="http://www.w3.org/1999/xlink" width="100px" height="100px" viewBox="0 0 100 100" version="1.1">
<g id="surface1">
<path style=" stroke:none;fill-rule:nonzero;fill:rgb(0%,0%,0%);fill-opacity:1;" d="M 62.96875 90.410156 C 59.609375 91.769531 55.988281 92.339844 52.375 92.078125 C 48.769531 92.375 45.148438 91.804688 41.808594 90.410156 C 40.878906 89.65625 40.339844 88.519531 40.351562 87.320312 C 40.351562 86.164062 40.308594 83.121094 40.289062 79.074219 C 26.792969 82.003906 23.949219 72.570312 23.949219 72.570312 C 23.054688 69.636719 21.144531 67.121094 18.558594 65.472656 C 14.15625 62.464844 18.890625 62.527344 18.890625 62.527344 C 22.003906 62.957031 24.746094 64.800781 26.320312 67.527344 C 27.648438 69.941406 29.886719 71.726562 32.539062 72.484375 C 35.191406 73.242188 38.035156 72.90625 40.4375 71.550781 C 40.660156 69.089844 41.753906 66.789062 43.519531 65.0625 C 32.753906 63.84375 21.425781 59.679688 21.425781 41.09375 C 21.355469 36.273438 23.140625 31.613281 26.414062 28.074219 C 24.9375 23.890625 25.109375 19.300781 26.894531 15.242188 C 26.894531 15.242188 30.964844 13.9375 40.230469 20.214844 C 48.179688 18.035156 56.570312 18.035156 64.519531 20.214844 C 73.785156 13.9375 77.847656 15.242188 77.847656 15.242188 C 79.636719 19.300781 79.808594 23.890625 78.332031 28.074219 C 81.605469 31.613281 83.390625 36.273438 83.316406 41.09375 C 83.316406 59.726562 71.972656 63.832031 61.167969 65.03125 C 63.511719 67.410156 64.710938 70.683594 64.457031 74.011719 C 64.457031 80.496094 64.398438 85.730469 64.398438 87.320312 C 64.460938 88.523438 63.925781 89.679688 62.96875 90.410156 Z M 62.96875 90.410156 "/>
</g>
</svg>
