<?xml version="1.0" encoding="UTF-8"?>
<svg xmlns="http://www.w3.org/2000/svg" xmlns:xlink="http://www.w3.org/1999/xlink" width="100px" height="100px" viewBox="0 0 100 100" version="1.1">
<g id="surface1">
<path style=" stroke:none;fill-rule:nonzero;fill:rgb(36.470588%,52.941176%,63.137255%);fill-opacity:1;" d="M 30.609375 71.320312 L 27.902344 71.320312 C 27.808594 66.753906 27.542969 62.457031 27.113281 58.429688 L 27.089844 58.429688 L 22.964844 71.320312 L 20.90625 71.320312 L 16.808594 58.429688 L 16.785156 58.429688 C 16.480469 62.296875 16.289062 66.59375 16.210938 71.320312 L 13.742188 71.320312 C 13.902344 65.570312 14.300781 60.179688 14.941406 55.148438 L 18.296875 55.148438 L 22.199219 67.03125 L 22.222656 67.03125 L 26.152344 55.148438 L 29.363281 55.148438 C 30.066406 61.042969 30.484375 66.433594 30.609375 71.320312 M 42.351562 59.386719 C 41.25 65.371094 39.792969 69.714844 37.988281 72.429688 C 36.582031 74.515625 35.042969 75.5625 33.367188 75.5625 C 32.917969 75.5625 32.367188 75.429688 31.710938 75.160156 L 31.710938 73.71875 C 32.03125 73.765625 32.40625 73.789062 32.839844 73.789062 C 33.621094 73.789062 34.25 73.574219 34.730469 73.140625 C 35.304688 72.617188 35.59375 72.023438 35.59375 71.371094 C 35.59375 70.921875 35.371094 70.003906 34.921875 68.613281 L 31.953125 59.386719 L 34.613281 59.386719 L 36.742188 66.289062 C 37.222656 67.855469 37.421875 68.949219 37.34375 69.570312 C 38.507812 66.457031 39.324219 63.0625 39.789062 59.386719 Z M 42.351562 59.386719 "/>
<path style=" stroke:none;fill-rule:nonzero;fill:rgb(97.254902%,59.607843%,11.372549%);fill-opacity:1;" d="M 78.386719 71.320312 L 70.699219 71.320312 L 70.699219 55.148438 L 73.285156 55.148438 L 73.285156 69.332031 L 78.386719 69.332031 Z M 68.683594 71.714844 L 65.710938 70.246094 C 65.976562 70.027344 66.226562 69.792969 66.453125 69.523438 C 67.71875 68.039062 68.347656 65.84375 68.347656 62.933594 C 68.347656 57.582031 66.25 54.90625 62.046875 54.90625 C 59.988281 54.90625 58.378906 55.585938 57.230469 56.945312 C 55.96875 58.429688 55.335938 60.617188 55.335938 63.511719 C 55.335938 66.351562 55.894531 68.4375 57.015625 69.761719 C 58.035156 70.960938 59.578125 71.5625 61.640625 71.5625 C 62.410156 71.5625 63.113281 71.464844 63.757812 71.277344 L 67.628906 73.53125 Z M 59.050781 68.085938 C 58.398438 67.03125 58.070312 65.339844 58.070312 63.007812 C 58.070312 58.933594 59.308594 56.894531 61.785156 56.894531 C 63.078125 56.894531 64.027344 57.382812 64.632812 58.355469 C 65.289062 59.410156 65.617188 61.089844 65.617188 63.386719 C 65.617188 67.496094 64.378906 69.546875 61.902344 69.546875 C 60.609375 69.546875 59.660156 69.0625 59.050781 68.085938 M 54.210938 66.839844 C 54.210938 68.210938 53.707031 69.335938 52.703125 70.21875 C 51.695312 71.09375 50.34375 71.535156 48.652344 71.535156 C 47.070312 71.535156 45.539062 71.03125 44.054688 70.023438 L 44.75 68.636719 C 46.027344 69.273438 47.183594 69.59375 48.222656 69.59375 C 49.195312 69.59375 49.957031 69.378906 50.511719 68.949219 C 51.0625 68.519531 51.390625 67.914062 51.390625 67.152344 C 51.390625 66.191406 50.71875 65.371094 49.492188 64.683594 C 48.359375 64.058594 46.089844 62.757812 46.089844 62.757812 C 44.863281 61.863281 44.246094 60.902344 44.246094 59.316406 C 44.246094 58.007812 44.703125 56.949219 45.625 56.140625 C 46.542969 55.335938 47.726562 54.929688 49.183594 54.929688 C 50.683594 54.929688 52.046875 55.332031 53.277344 56.128906 L 52.652344 57.519531 C 51.601562 57.074219 50.566406 56.847656 49.539062 56.847656 C 48.710938 56.847656 48.070312 57.046875 47.625 57.449219 C 47.175781 57.847656 46.902344 58.359375 46.902344 58.984375 C 46.902344 59.941406 47.585938 60.769531 48.847656 61.472656 C 49.996094 62.097656 52.320312 63.421875 52.320312 63.421875 C 53.582031 64.316406 54.210938 65.265625 54.210938 66.839844 "/>
<path style=" stroke:none;fill-rule:nonzero;fill:rgb(36.470588%,52.941176%,63.137255%);fill-opacity:1;" d="M 81.636719 49.730469 C 80.070312 49.691406 78.859375 49.847656 77.84375 50.277344 C 77.550781 50.394531 77.085938 50.394531 77.042969 50.765625 C 77.203125 50.921875 77.21875 51.175781 77.359375 51.390625 C 77.59375 51.78125 78 52.308594 78.375 52.582031 C 78.785156 52.894531 79.195312 53.207031 79.625 53.480469 C 80.386719 53.949219 81.246094 54.226562 81.988281 54.695312 C 82.417969 54.964844 82.847656 55.320312 83.28125 55.613281 C 83.492188 55.769531 83.628906 56.023438 83.90625 56.121094 L 83.90625 56.058594 C 83.765625 55.882812 83.726562 55.628906 83.59375 55.433594 L 83.003906 54.867188 C 82.4375 54.105469 81.734375 53.441406 80.972656 52.894531 C 80.347656 52.464844 78.980469 51.878906 78.726562 51.15625 L 78.683594 51.117188 C 79.117188 51.078125 79.625 50.921875 80.035156 50.800781 C 80.699219 50.628906 81.304688 50.667969 81.988281 50.492188 C 82.300781 50.414062 82.613281 50.316406 82.925781 50.21875 L 82.925781 50.042969 C 82.574219 49.691406 82.320312 49.222656 81.949219 48.890625 C 80.953125 48.03125 79.859375 47.1875 78.726562 46.484375 C 78.117188 46.09375 77.335938 45.839844 76.691406 45.507812 C 76.457031 45.390625 76.066406 45.332031 75.929688 45.136719 C 75.578125 44.707031 75.382812 44.140625 75.128906 43.632812 C 74.5625 42.558594 74.015625 41.367188 73.527344 40.230469 C 73.171875 39.46875 72.960938 38.707031 72.527344 38.003906 C 70.515625 34.679688 68.328125 32.667969 64.964844 30.695312 C 64.242188 30.28125 63.382812 30.109375 62.464844 29.890625 L 61 29.816406 C 60.6875 29.675781 60.375 29.304688 60.101562 29.128906 C 58.984375 28.425781 56.113281 26.902344 55.292969 28.914062 C 54.765625 30.1875 56.074219 31.4375 56.523438 32.082031 C 56.855469 32.53125 57.289062 33.039062 57.519531 33.546875 C 57.65625 33.878906 57.695312 34.234375 57.832031 34.582031 C 58.144531 35.445312 58.4375 36.402344 58.851562 37.203125 C 59.0625 37.613281 59.296875 38.042969 59.574219 38.414062 C 59.730469 38.628906 60.003906 38.726562 60.0625 39.078125 C 59.789062 39.46875 59.769531 40.054688 59.613281 40.542969 C 58.910156 42.75 59.183594 45.488281 60.179688 47.109375 C 60.492188 47.597656 61.234375 48.675781 62.230469 48.261719 C 63.113281 47.910156 62.917969 46.796875 63.167969 45.820312 C 63.226562 45.582031 63.1875 45.429688 63.304688 45.273438 L 63.304688 45.3125 C 63.578125 45.859375 63.855469 46.386719 64.105469 46.933594 C 64.714844 47.890625 65.769531 48.886719 66.648438 49.550781 C 67.117188 49.90625 67.488281 50.507812 68.074219 50.726562 L 68.074219 50.667969 L 68.035156 50.667969 C 67.917969 50.492188 67.742188 50.414062 67.585938 50.277344 C 67.234375 49.925781 66.84375 49.496094 66.570312 49.105469 C 65.75 48.007812 65.027344 46.796875 64.382812 45.546875 C 64.066406 44.941406 63.796875 44.277344 63.542969 43.671875 C 63.425781 43.4375 63.425781 43.085938 63.226562 42.964844 C 62.933594 43.394531 62.503906 43.769531 62.292969 44.292969 C 61.917969 45.136719 61.878906 46.171875 61.742188 47.246094 L 61.664062 47.285156 C 61.042969 47.128906 60.828125 46.484375 60.589844 45.9375 C 60.003906 44.550781 59.90625 42.320312 60.414062 40.71875 C 60.550781 40.308594 61.136719 39.019531 60.902344 38.628906 C 60.785156 38.253906 60.394531 38.042969 60.179688 37.75 C 59.929688 37.378906 59.652344 36.910156 59.476562 36.496094 C 59.007812 35.402344 58.769531 34.191406 58.265625 33.097656 C 58.03125 32.589844 57.621094 32.0625 57.289062 31.59375 C 56.917969 31.066406 56.507812 30.695312 56.210938 30.070312 C 56.117188 29.851562 55.980469 29.5 56.136719 29.269531 C 56.171875 29.109375 56.253906 29.050781 56.410156 29.011719 C 56.660156 28.800781 57.386719 29.070312 57.640625 29.1875 C 58.363281 29.480469 58.96875 29.753906 59.574219 30.164062 C 59.847656 30.363281 60.140625 30.734375 60.492188 30.832031 L 60.902344 30.832031 C 61.527344 30.96875 62.230469 30.867188 62.820312 31.046875 C 63.855469 31.378906 64.792969 31.867188 65.632812 32.394531 C 68.191406 34.015625 70.304688 36.324219 71.730469 39.078125 C 71.964844 39.527344 72.0625 39.9375 72.277344 40.40625 C 72.6875 41.363281 73.195312 42.34375 73.605469 43.28125 C 74.015625 44.199219 74.40625 45.136719 74.992188 45.898438 C 75.285156 46.308594 76.460938 46.523438 76.988281 46.738281 C 77.378906 46.914062 77.984375 47.070312 78.335938 47.285156 C 79 47.695312 79.664062 48.164062 80.289062 48.613281 C 80.601562 48.847656 81.578125 49.339844 81.636719 49.730469 M 61.699219 32.746094 C 61.429688 32.742188 61.164062 32.777344 60.902344 32.84375 L 60.902344 32.882812 L 60.9375 32.882812 C 61.097656 33.195312 61.371094 33.414062 61.566406 33.683594 C 61.722656 34 61.859375 34.308594 62.011719 34.621094 L 62.050781 34.582031 C 62.328125 34.386719 62.464844 34.074219 62.464844 33.605469 C 62.34375 33.46875 62.328125 33.332031 62.226562 33.195312 C 62.113281 33 61.859375 32.902344 61.699219 32.746094 "/>
<path style=" stroke:none;fill-rule:nonzero;fill:rgb(97.254902%,59.607843%,11.372549%);fill-opacity:1;" d="M 83.496094 71.320312 L 83.902344 71.320312 L 83.902344 69.335938 L 83.292969 69.335938 L 82.800781 70.691406 L 82.261719 69.335938 L 81.675781 69.335938 L 81.675781 71.320312 L 82.058594 71.320312 L 82.058594 69.8125 L 82.082031 69.8125 L 82.644531 71.320312 L 82.933594 71.320312 L 83.496094 69.8125 Z M 80.234375 71.320312 L 80.664062 71.320312 L 80.664062 69.671875 L 81.226562 69.671875 L 81.226562 69.335938 L 79.652344 69.335938 L 79.652344 69.671875 L 80.234375 69.671875 Z M 80.234375 71.320312 "/>
</g>
</svg>
