<?xml version="1.0" encoding="UTF-8"?>
<svg xmlns="http://www.w3.org/2000/svg" xmlns:xlink="http://www.w3.org/1999/xlink" width="100px" height="100px" viewBox="0 0 100 100" version="1.1">
<g id="surface1">
<path style=" stroke:none;fill-rule:nonzero;fill:rgb(91.764706%,10.588235%,13.333333%);fill-opacity:1;" d="M 43.171875 51.914062 L 49.777344 51.914062 L 46.285156 46.292969 L 39.871094 56.457031 L 36.953125 56.457031 L 44.753906 44.25 C 45.09375 43.753906 45.65625 43.457031 46.285156 43.457031 C 46.890625 43.457031 47.457031 43.746094 47.785156 44.226562 L 55.617188 56.457031 L 52.695312 56.457031 L 51.320312 54.1875 L 44.628906 54.1875 Z M 73.488281 54.1875 L 73.488281 43.582031 L 71.011719 43.582031 L 71.011719 55.222656 C 71.011719 55.542969 71.132812 55.851562 71.371094 56.085938 C 71.605469 56.324219 71.925781 56.457031 72.273438 56.457031 L 83.566406 56.457031 L 85.027344 54.1875 Z M 32.515625 52.285156 C 34.917969 52.285156 36.871094 50.34375 36.871094 47.9375 C 36.871094 45.53125 34.917969 43.582031 32.515625 43.582031 L 21.679688 43.582031 L 21.679688 56.457031 L 24.15625 56.457031 L 24.15625 45.851562 L 32.347656 45.851562 C 33.5 45.851562 34.425781 46.785156 34.425781 47.9375 C 34.425781 49.089844 33.5 50.023438 32.347656 50.023438 L 25.367188 50.011719 L 32.761719 56.457031 L 36.359375 56.457031 L 31.382812 52.285156 Z M 6.4375 56.457031 C 2.882812 56.457031 0 53.578125 0 50.023438 C 0 46.46875 2.882812 43.582031 6.4375 43.582031 L 13.921875 43.582031 C 17.480469 43.582031 20.363281 46.46875 20.363281 50.023438 C 20.363281 53.578125 17.480469 56.457031 13.921875 56.457031 Z M 13.757812 54.1875 C 16.058594 54.1875 17.925781 52.324219 17.925781 50.023438 C 17.925781 47.722656 16.058594 45.851562 13.757812 45.851562 L 6.605469 45.851562 C 4.304688 45.851562 2.4375 47.722656 2.4375 50.023438 C 2.4375 52.324219 4.304688 54.1875 6.605469 54.1875 Z M 60.785156 56.457031 C 57.230469 56.457031 54.339844 53.578125 54.339844 50.023438 C 54.339844 46.46875 57.230469 43.582031 60.785156 43.582031 L 69.675781 43.582031 L 68.226562 45.851562 L 60.949219 45.851562 C 58.648438 45.851562 56.777344 47.722656 56.777344 50.023438 C 56.777344 52.324219 58.648438 54.1875 60.949219 54.1875 L 69.878906 54.1875 L 68.421875 56.457031 Z M 91.070312 54.1875 C 89.167969 54.1875 87.554688 52.910156 87.0625 51.152344 L 97.648438 51.152344 L 99.105469 48.882812 L 87.0625 48.882812 C 87.554688 47.136719 89.167969 45.851562 91.070312 45.851562 L 98.335938 45.851562 L 99.804688 43.582031 L 90.90625 43.582031 C 87.347656 43.582031 84.460938 46.46875 84.460938 50.023438 C 84.460938 53.578125 87.347656 56.457031 90.90625 56.457031 L 98.539062 56.457031 L 100 54.1875 Z M 91.070312 54.1875 "/>
</g>
</svg>
