<?xml version="1.0" encoding="UTF-8"?>
<svg xmlns="http://www.w3.org/2000/svg" xmlns:xlink="http://www.w3.org/1999/xlink" width="100px" height="100px" viewBox="0 0 100 100" version="1.1">
<defs>
<linearGradient id="linear0" gradientUnits="userSpaceOnUse" x1="0.499279" y1="0.907207" x2="0.499279" y2="0.362883" gradientTransform="matrix(39.171875,0,0,77.285156,49.980469,0)">
<stop offset="0.18" style="stop-color:rgb(0%,32.156863%,80%);stop-opacity:1;"/>
<stop offset="1" style="stop-color:rgb(14.901961%,51.764706%,100%);stop-opacity:1;"/>
</linearGradient>
</defs>
<g id="surface1">
<path style=" stroke:none;fill-rule:nonzero;fill:rgb(14.901961%,51.764706%,100%);fill-opacity:1;" d="M 89.585938 39.601562 C 89.585938 17.730469 71.855469 0 49.980469 0 C 30.488281 -0.0273438 13.875 14.140625 10.824219 33.394531 C 7.773438 52.648438 19.195312 71.257812 37.742188 77.257812 L 37.742188 97.097656 C 37.742188 98.636719 38.988281 99.882812 40.527344 99.882812 L 59.324219 99.882812 C 60.863281 99.882812 62.109375 98.636719 62.109375 97.097656 L 62.109375 77.269531 C 78.46875 72.003906 89.566406 56.789062 89.585938 39.601562 Z M 49.980469 52.984375 C 42.585938 52.984375 36.59375 46.992188 36.59375 39.597656 C 36.59375 32.203125 42.585938 26.207031 49.980469 26.207031 C 57.375 26.207031 63.371094 32.203125 63.371094 39.597656 C 63.371094 46.992188 57.375 52.984375 49.980469 52.984375 Z M 49.980469 52.984375 "/>
<path style=" stroke:none;fill-rule:nonzero;fill:url(#linear0);" d="M 49.980469 0 L 49.980469 26.222656 C 57.375 26.222656 63.371094 32.214844 63.371094 39.609375 C 63.371094 47.003906 57.375 53 49.980469 53 C 53.226562 53 56.339844 54.289062 58.636719 56.582031 C 60.933594 58.878906 62.222656 61.992188 62.222656 65.238281 L 62.222656 77.285156 C 80.777344 71.28125 92.199219 52.667969 89.152344 33.40625 C 86.101562 14.148438 69.480469 -0.0273438 49.980469 0 Z M 49.980469 0 "/>
</g>
</svg>
