<?xml version="1.0" encoding="UTF-8"?>
<svg xmlns="http://www.w3.org/2000/svg" xmlns:xlink="http://www.w3.org/1999/xlink" width="100px" height="100px" viewBox="0 0 100 100" version="1.1">
<g id="surface1">
<path style=" stroke:none;fill-rule:nonzero;fill:rgb(42.745098%,70.196078%,24.705882%);fill-opacity:1;" d="M 52.957031 43.1875 C 56.015625 43.1875 59.019531 45.605469 59.019531 49.972656 L 59.019531 50.027344 C 59.019531 54.363281 56.042969 56.808594 52.957031 56.808594 C 50.789062 56.808594 49.425781 55.726562 48.511719 54.503906 L 48.511719 59.117188 C 48.511719 59.9375 47.867188 60.59375 47.058594 60.617188 L 47.007812 60.621094 C 46.203125 60.621094 45.535156 59.953125 45.535156 59.144531 L 45.535156 44.742188 C 45.507812 43.9375 46.175781 43.269531 46.980469 43.242188 L 47.007812 43.242188 C 47.828125 43.242188 48.484375 43.882812 48.507812 44.695312 L 48.511719 44.742188 L 48.511719 45.632812 C 49.484375 44.269531 50.84375 43.1875 52.957031 43.1875 Z M 92.546875 43.160156 C 94.628906 43.160156 95.980469 44.210938 96.949219 45.542969 L 96.996094 45.605469 L 96.996094 44.667969 C 97.023438 43.871094 97.65625 43.242188 98.449219 43.214844 L 98.527344 43.214844 C 99.34375 43.242188 100 43.882812 100 44.695312 L 100 53.863281 C 100 56.058594 99.414062 57.699219 98.332031 58.785156 C 97.164062 59.980469 95.328125 60.535156 92.964844 60.535156 C 91.214844 60.535156 89.492188 60.148438 87.90625 59.367188 C 87.40625 59.203125 87.070312 58.699219 87.070312 58.171875 C 87.097656 57.476562 87.65625 56.949219 88.351562 56.949219 C 88.546875 56.949219 88.710938 56.976562 88.878906 57.058594 C 90.101562 57.753906 91.492188 58.089844 92.882812 58.089844 C 95.414062 58.089844 96.859375 56.867188 96.996094 54.503906 C 96.078125 55.699219 94.71875 56.78125 92.546875 56.78125 C 89.492188 56.78125 86.546875 54.382812 86.488281 50.128906 L 86.488281 49.941406 C 86.488281 45.578125 89.492188 43.160156 92.546875 43.160156 Z M 80.675781 43.242188 C 83.625 43.242188 85.320312 45.214844 85.320312 48.246094 L 85.320312 55.28125 C 85.347656 56.085938 84.707031 56.726562 83.902344 56.753906 L 83.847656 56.753906 C 83.039062 56.78125 82.375 56.113281 82.34375 55.308594 L 82.34375 49.164062 C 82.34375 47.136719 81.34375 45.96875 79.539062 45.96875 C 77.8125 45.96875 76.589844 47.191406 76.589844 49.21875 L 76.589844 55.308594 C 76.589844 56.144531 75.921875 56.808594 75.089844 56.808594 C 74.253906 56.808594 73.585938 56.144531 73.585938 55.308594 L 73.617188 44.773438 C 73.585938 43.964844 74.253906 43.296875 75.0625 43.269531 L 75.089844 43.269531 C 75.90625 43.269531 76.566406 43.914062 76.589844 44.722656 L 76.589844 45.382812 C 77.480469 43.992188 79.035156 43.1875 80.675781 43.242188 Z M 39.308594 43.214844 C 40.753906 43.242188 42.144531 43.605469 43.421875 44.269531 C 43.867188 44.492188 44.144531 44.910156 44.144531 45.410156 C 44.144531 46.078125 43.589844 46.632812 42.921875 46.632812 L 42.894531 46.632812 C 42.699219 46.632812 42.503906 46.578125 42.308594 46.496094 C 41.363281 45.96875 40.335938 45.660156 39.253906 45.605469 C 38.085938 45.605469 37.417969 46.160156 37.417969 46.886719 L 37.417969 46.941406 C 37.417969 47.914062 38.835938 48.304688 40.363281 48.804688 C 40.40625 48.816406 40.449219 48.828125 40.488281 48.839844 L 40.617188 48.882812 C 40.761719 48.929688 40.910156 48.976562 41.058594 49.027344 L 41.183594 49.070312 C 42.84375 49.667969 44.421875 50.605469 44.421875 52.613281 L 44.421875 52.667969 C 44.421875 55.421875 42.28125 56.78125 39.585938 56.78125 C 37.804688 56.753906 36.054688 56.226562 34.582031 55.226562 C 34.21875 55.003906 33.996094 54.613281 34.023438 54.195312 C 34.023438 53.53125 34.554688 52.972656 35.21875 52.972656 L 35.25 52.972656 C 35.472656 52.972656 35.691406 53.027344 35.886719 53.140625 C 37 53.917969 38.308594 54.335938 39.640625 54.390625 C 40.921875 54.390625 41.671875 53.835938 41.671875 52.972656 L 41.671875 52.917969 C 41.671875 51.890625 40.28125 51.554688 38.75 51.082031 C 38.589844 51.035156 38.429688 50.988281 38.269531 50.9375 L 38.148438 50.898438 C 36.40625 50.347656 34.664062 49.488281 34.664062 47.246094 L 34.664062 47.191406 C 34.664062 44.714844 36.722656 43.214844 39.308594 43.214844 Z M 70.585938 43.269531 C 71.402344 43.269531 72.0625 43.914062 72.085938 44.722656 L 72.085938 55.308594 C 72.085938 56.144531 71.417969 56.78125 70.585938 56.78125 C 69.75 56.78125 69.113281 56.113281 69.113281 55.308594 L 69.113281 44.773438 C 69.082031 43.964844 69.75 43.296875 70.558594 43.269531 Z M 67.917969 44.492188 L 67.917969 44.714844 C 67.917969 45.4375 67.414062 46.050781 66.71875 46.160156 C 64.578125 46.523438 63.132812 48.386719 63.132812 50.972656 L 63.132812 55.28125 C 63.132812 56.113281 62.46875 56.753906 61.632812 56.753906 C 60.84375 56.753906 60.183594 56.140625 60.160156 55.355469 L 60.160156 55.28125 L 60.1875 44.742188 C 60.160156 43.9375 60.828125 43.269531 61.632812 43.242188 L 61.660156 43.242188 C 62.480469 43.242188 63.136719 43.882812 63.160156 44.695312 L 63.160156 45.46875 C 63.300781 44.355469 65.136719 43.242188 66.441406 43.242188 C 67.191406 43.1875 67.859375 43.742188 67.917969 44.492188 Z M 52.292969 45.800781 C 50.261719 45.800781 48.480469 47.496094 48.480469 49.972656 L 48.480469 50.027344 C 48.480469 52.527344 50.261719 54.195312 52.292969 54.195312 C 54.320312 54.195312 56.015625 52.613281 56.015625 50.027344 L 56.015625 49.972656 C 56.015625 47.441406 54.320312 45.800781 52.292969 45.800781 Z M 93.242188 45.773438 C 91.234375 45.773438 89.554688 47.378906 89.519531 49.863281 L 89.519531 50 C 89.519531 52.585938 91.1875 54.195312 93.242188 54.195312 C 95.28125 54.195312 97.042969 52.535156 97.054688 50.074219 L 97.054688 49.941406 C 97.054688 47.46875 95.273438 45.773438 93.242188 45.773438 Z M 72.113281 39.601562 L 72.113281 39.65625 C 72.113281 40.492188 71.445312 41.15625 70.613281 41.15625 C 69.777344 41.15625 69.113281 40.492188 69.113281 39.65625 C 69.113281 38.839844 69.753906 38.179688 70.566406 38.15625 L 70.613281 38.15625 C 71.417969 38.128906 72.085938 38.792969 72.113281 39.601562 Z M 72.113281 39.601562 "/>
<path style=" stroke:none;fill-rule:nonzero;fill:rgb(42.745098%,70.196078%,24.705882%);fill-opacity:1;" d="M 4.109375 40.210938 C 9.449219 35.042969 17.984375 35.179688 23.15625 40.546875 C 23.738281 39.765625 24.238281 38.90625 24.601562 38.015625 C 26.296875 43.1875 27.324219 47.523438 26.9375 50.886719 C 26.742188 53.722656 25.628906 56.449219 23.792969 58.617188 C 19.011719 64.289062 10.503906 65.011719 4.832031 60.230469 L 4.722656 60.132812 L 4.703125 60.121094 C 4.691406 60.109375 4.679688 60.101562 4.667969 60.089844 C 4.613281 60.050781 4.566406 60.007812 4.527344 59.960938 L 4.511719 59.945312 L 4.332031 59.785156 C 4.164062 59.640625 4 59.5 3.847656 59.339844 L 3.777344 59.257812 C -1.394531 53.917969 -1.226562 45.382812 4.109375 40.210938 Z M 6.113281 58.3125 C 5.609375 57.921875 4.886719 57.976562 4.5 58.476562 C 4.160156 58.914062 4.160156 59.519531 4.496094 59.925781 L 4.511719 59.945312 L 4.722656 60.132812 L 4.746094 60.148438 C 5.226562 60.464844 5.875 60.402344 6.246094 59.960938 L 6.277344 59.925781 C 6.667969 59.421875 6.585938 58.699219 6.113281 58.3125 Z M 24.460938 39.40625 C 23.070312 42.324219 19.625 44.550781 16.648438 45.246094 C 15.503906 45.515625 14.417969 45.585938 13.355469 45.640625 L 13.039062 45.65625 C 11.617188 45.726562 10.234375 45.804688 8.808594 46.355469 C 2.914062 48.609375 3.027344 55.613281 6.25 57.199219 L 6.445312 57.3125 C 6.445312 57.3125 8.578125 56.886719 10.78125 56.3125 L 10.980469 56.261719 C 11.011719 56.253906 11.046875 56.246094 11.078125 56.234375 L 11.277344 56.183594 C 12.195312 55.933594 13.101562 55.664062 13.839844 55.390625 C 17.675781 53.972656 21.902344 50.472656 23.292969 46.414062 C 22.570312 50.636719 18.929688 54.726562 15.285156 56.585938 C 13.339844 57.589844 11.839844 57.8125 8.640625 58.921875 C 8.253906 59.0625 7.945312 59.203125 7.945312 59.203125 C 7.964844 59.199219 7.984375 59.195312 8 59.195312 L 8.113281 59.179688 L 8.21875 59.164062 C 8.925781 59.078125 9.558594 59.035156 9.558594 59.035156 C 14.089844 58.8125 21.207031 60.3125 24.515625 55.894531 C 27.910156 51.390625 26.019531 44.105469 24.460938 39.40625 Z M 24.460938 39.40625 "/>
<path style=" stroke:none;fill-rule:nonzero;fill:rgb(100%,100%,100%);fill-opacity:1;" d="M 6.113281 58.3125 C 6.585938 58.699219 6.667969 59.421875 6.277344 59.925781 C 5.890625 60.425781 5.167969 60.480469 4.667969 60.089844 C 4.164062 59.703125 4.109375 58.980469 4.5 58.476562 C 4.886719 57.976562 5.609375 57.921875 6.113281 58.3125 Z M 24.460938 39.40625 C 26.019531 44.105469 27.910156 51.390625 24.515625 55.894531 C 21.207031 60.3125 14.089844 58.8125 9.558594 59.035156 C 9.558594 59.035156 8.753906 59.089844 7.945312 59.203125 C 7.945312 59.203125 8.253906 59.0625 8.640625 58.921875 C 11.839844 57.8125 13.339844 57.589844 15.285156 56.585938 C 18.929688 54.726562 22.570312 50.636719 23.292969 46.414062 C 21.902344 50.472656 17.675781 53.972656 13.839844 55.390625 C 13.152344 55.644531 12.324219 55.894531 11.472656 56.128906 L 11.277344 56.183594 C 8.910156 56.820312 6.445312 57.3125 6.445312 57.3125 L 6.25 57.199219 C 3.027344 55.613281 2.914062 48.609375 8.808594 46.355469 C 11.394531 45.355469 13.839844 45.910156 16.648438 45.246094 C 19.625 44.550781 23.070312 42.324219 24.460938 39.40625 Z M 24.460938 39.40625 "/>
</g>
</svg>
